<svg width="177" height="111" viewBox="0 0 177 111"
    xmlns="http://www.w3.org/2000/svg" fill='none'>
    <g id="Frame 1" clip-path="url(#clip0)">
        <g id="sides">
            <path id="blobL" d="M70.8406 40.9155C85.6165 29.458 86.9347 18.0995 85.7469 13.8524C83.6875 0.919193 41.9217 18.9181 19.6326 31.616C1.80122 41.7744 8.16855 58.0638 13.5811 64.9387C29.6884 80.8882 63.4987 110.472 69.8823 101.212C76.2659 91.9516 70.2916 73.0666 65.934 67.9338C61.7945 61.6002 56.0647 52.3729 70.8406 40.9155Z" />
            <path id="blobR" d="M126.593 71.2267C125.202 89.8725 132.753 98.4599 136.702 100.423C147.684 107.557 162.298 64.49 167.8 39.4347C172.202 19.3905 155.842 13.2065 147.112 12.6201C124.48 13.8955 79.8664 19.1821 82.4659 30.125C85.0654 41.0678 103.089 49.2822 109.819 49.485C117.295 50.6542 127.984 52.5808 126.593 71.2267Z" />
        </g>
        <g id="center">
            <path id="blobC" d="M110.473 52.5052C129.034 50.2509 135.993 41.1773 137.152 36.9223C142.02 24.7643 96.935 18.7871 71.2883 18.2517C50.7708 17.8233 47.8794 35.0723 48.9984 43.7504C54.6419 65.7044 68.4864 108.444 78.7167 103.77C88.9469 99.0965 93.5072 79.8212 92.4001 73.1798C92.0962 65.6195 91.9117 54.7595 110.473 52.5052Z" />
        </g>
    </g>
    <defs>
        <clipPath id="clip0">
            <rect width="177" height="111" fill="white"/>
        </clipPath>
    </defs>
</svg>
